<svg width="80" height="73" viewBox="0 0 80 73" fill="none" xmlns="http://www.w3.org/2000/svg">
<g id="Frame 2147225258">
<path id="Vector 17" d="M26.9391 31.9843L0.77147 71.5331C0.50096 71.9419 0.794136 72.4875 1.28437 72.4875H11.7976C12.0064 72.4875 12.2009 72.3815 12.3142 72.2061L21.401 58.1362C21.5557 57.8967 21.8548 57.7949 22.1235 57.8904L44.5761 65.8669C44.845 65.9625 45.1443 65.8605 45.2989 65.6207L59.6743 43.3241C59.8915 42.9872 59.7335 42.5358 59.3535 42.408L27.6481 31.7407C27.3839 31.6518 27.093 31.7518 26.9391 31.9843Z" fill="#E73725" stroke="#E73725" stroke-width="0.615"/>
<path id="Vector 18" d="M31.1444 43.0569L24.6468 53.9846C24.584 54.0902 24.6977 54.2124 24.8075 54.1575L31.1513 50.9856C31.1809 50.9708 31.2151 50.9686 31.2463 50.9793L40.9433 54.3126C40.9982 54.3315 41.0589 54.3094 41.0887 54.2596L44.6523 48.3204C44.6916 48.2549 44.6624 48.1699 44.5912 48.1424L31.2944 43.005C31.2385 42.9834 31.1751 43.0053 31.1444 43.0569Z" fill="#F8F8F8" stroke="#E73725" stroke-width="0.615"/>
<path id="Vector 19" d="M17.9327 16.8956L5.05925 36.7909C4.79448 37.2001 5.0882 37.74 5.57559 37.74L15.4906 37.74C15.6978 37.74 15.8904 37.6368 16.0041 37.4636C18.2208 34.086 22.553 27.4907 23.5101 26.055C24.461 24.6287 25.8713 25.0018 26.5201 25.3985C26.5639 25.4253 26.6074 25.4479 26.6558 25.4649C36.0112 28.7543 55.4994 35.5285 59.1801 36.51C62.8701 37.494 65.2276 35.69 65.9451 34.665L79.1735 14.0876C79.4366 13.6783 79.1427 13.14 78.6562 13.14H68.7515C68.5365 13.14 68.3376 13.2514 68.2262 13.4354C66.1159 16.921 62.0498 23.6982 61.3326 25.1325C60.5946 26.6085 59.1801 26.3625 58.5651 26.055C49.3401 22.775 29.7216 15.9075 25.0476 14.6775C20.4645 13.4714 18.4635 15.5176 18.0008 16.7573C17.9827 16.8058 17.9609 16.852 17.9327 16.8956Z" fill="#E73725"/>
<circle id="Ellipse 821" cx="49.3401" cy="8.21997" r="7.38" fill="#E73725"/>
</g>
</svg>
