<svg width="763" height="690" viewBox="0 0 763 690" fill="none" xmlns="http://www.w3.org/2000/svg">
<path d="M256.701 298.517L6.08755 677.285C3.49681 681.201 6.30462 686.425 10.9997 686.425H111.687C113.687 686.425 115.55 685.411 116.635 683.731L203.662 548.98C205.143 546.686 208.008 545.711 210.581 546.625L425.615 623.019C428.19 623.934 431.056 622.957 432.537 620.66L570.214 407.121C572.294 403.894 570.781 399.571 567.142 398.347L263.492 296.184C260.961 295.333 258.175 296.29 256.701 298.517Z" fill="black" stroke="black" stroke-width="5.89"/>
<path d="M296.976 404.561L234.747 509.219C234.146 510.229 235.235 511.4 236.287 510.874L297.043 480.496C297.326 480.355 297.653 480.333 297.952 480.436L390.823 512.36C391.349 512.541 391.93 512.329 392.216 511.852L426.345 454.97C426.721 454.344 426.441 453.529 425.759 453.266L298.413 404.064C297.877 403.857 297.27 404.067 296.976 404.561Z" fill="white" stroke="black" stroke-width="5.89"/>
<path d="M170.444 154.008L47.1515 344.55C44.6157 348.469 47.4287 353.64 52.0966 353.64L147.055 353.64C149.04 353.64 150.884 352.652 151.972 350.992C173.203 318.644 214.693 255.48 223.86 241.73C232.967 228.07 246.473 231.643 252.688 235.443C253.107 235.699 253.524 235.915 253.987 236.078C343.586 267.582 530.229 332.46 565.48 341.86C600.82 351.284 623.398 334.007 630.27 324.19L756.961 127.115C759.481 123.195 756.666 118.04 752.007 118.04H657.148C655.088 118.04 653.183 119.107 652.116 120.869C631.906 154.251 592.963 219.158 586.095 232.895C579.027 247.031 565.48 244.675 559.59 241.73C471.24 210.317 283.349 144.545 238.585 132.765C194.691 121.214 175.527 140.811 171.096 152.683C170.923 153.149 170.713 153.591 170.444 154.008Z" fill="black"/>
<circle cx="471.24" cy="70.9202" r="70.68" fill="black"/>
</svg>
