<svg width="52" height="52" viewBox="0 0 52 52" fill="none" xmlns="http://www.w3.org/2000/svg">
<path d="M27.4921 47.8254H5.49206C3.01587 47.8254 1 45.8095 1 43.3333V8.66662C1 6.19043 3.01587 4.17456 5.49206 4.17456H43.3333C45.8095 4.17456 47.8254 6.19043 47.8254 8.66662V27.492C47.8254 27.8078 47.7 28.1106 47.4767 28.3338C47.2535 28.5571 46.9507 28.6825 46.6349 28.6825C46.3192 28.6825 46.0164 28.5571 45.7931 28.3338C45.5699 28.1106 45.4445 27.8078 45.4445 27.492V8.66662C45.4445 7.50313 44.4968 6.55551 43.3333 6.55551H5.49206C4.32857 6.55551 3.38095 7.50313 3.38095 8.66662V43.3333C3.38095 44.4968 4.32857 45.4444 5.49206 45.4444H27.4921C27.8078 45.4444 28.1106 45.5698 28.3339 45.7931C28.5571 46.0163 28.6825 46.3191 28.6825 46.6349C28.6825 46.9506 28.5571 47.2534 28.3339 47.4767C28.1106 47.6999 27.8078 47.8254 27.4921 47.8254Z" fill="#E73725" stroke="#E73725" stroke-width="0.5"/>
<path d="M46.6349 16.0794H2.19048C1.87474 16.0794 1.57194 15.9539 1.34868 15.7307C1.12542 15.5074 1 15.2046 1 14.8889C1 14.5732 1.12542 14.2704 1.34868 14.0471C1.57194 13.8238 1.87474 13.6984 2.19048 13.6984H46.6349C46.9507 13.6984 47.2535 13.8238 47.4767 14.0471C47.7 14.2704 47.8254 14.5732 47.8254 14.8889C47.8254 15.2046 47.7 15.5074 47.4767 15.7307C47.2535 15.9539 46.9507 16.0794 46.6349 16.0794ZM24.4127 9.73016C24.097 9.73016 23.7942 9.60473 23.5709 9.38148C23.3476 9.15822 23.2222 8.85542 23.2222 8.53968V2.19048C23.2222 1.87474 23.3476 1.57194 23.5709 1.34868C23.7942 1.12542 24.097 1 24.4127 1C24.7284 1 25.0312 1.12542 25.2545 1.34868C25.4777 1.57194 25.6032 1.87474 25.6032 2.19048V8.53968C25.6032 8.85542 25.4777 9.15822 25.2545 9.38148C25.0312 9.60473 24.7284 9.73016 24.4127 9.73016ZM8.53968 9.73016C8.22395 9.73016 7.92115 9.60473 7.69789 9.38148C7.47463 9.15822 7.34921 8.85542 7.34921 8.53968V2.19048C7.34921 1.87474 7.47463 1.57194 7.69789 1.34868C7.92115 1.12542 8.22395 1 8.53968 1C8.85542 1 9.15822 1.12542 9.38148 1.34868C9.60473 1.57194 9.73016 1.87474 9.73016 2.19048V8.53968C9.73016 8.85542 9.60473 9.15822 9.38148 9.38148C9.15822 9.60473 8.85542 9.73016 8.53968 9.73016ZM40.2857 9.73016C39.97 9.73016 39.6672 9.60473 39.4439 9.38148C39.2207 9.15822 39.0952 8.85542 39.0952 8.53968V2.19048C39.0952 1.87474 39.2207 1.57194 39.4439 1.34868C39.6672 1.12542 39.97 1 40.2857 1C40.6014 1 40.9043 1.12542 41.1275 1.34868C41.3508 1.57194 41.4762 1.87474 41.4762 2.19048V8.53968C41.4762 8.85542 41.3508 9.15822 41.1275 9.38148C40.9043 9.60473 40.6014 9.73016 40.2857 9.73016ZM14.8889 28.7778H8.53968C8.22395 28.7778 7.92115 28.6524 7.69789 28.4291C7.47463 28.2058 7.34921 27.903 7.34921 27.5873V21.2381C7.34921 20.9224 7.47463 20.6196 7.69789 20.3963C7.92115 20.173 8.22395 20.0476 8.53968 20.0476H14.8889C15.2046 20.0476 15.5074 20.173 15.7307 20.3963C15.9539 20.6196 16.0794 20.9224 16.0794 21.2381V27.5873C16.0794 27.903 15.9539 28.2058 15.7307 28.4291C15.5074 28.6524 15.2046 28.7778 14.8889 28.7778ZM9.73016 26.3968H13.6984V22.4286H9.73016V26.3968ZM27.5873 28.7778H21.2381C20.9224 28.7778 20.6196 28.6524 20.3963 28.4291C20.173 28.2058 20.0476 27.903 20.0476 27.5873V21.2381C20.0476 20.9224 20.173 20.6196 20.3963 20.3963C20.6196 20.173 20.9224 20.0476 21.2381 20.0476H27.5873C27.903 20.0476 28.2058 20.173 28.4291 20.3963C28.6524 20.6196 28.7778 20.9224 28.7778 21.2381V27.5873C28.7778 27.903 28.6524 28.2058 28.4291 28.4291C28.2058 28.6524 27.903 28.7778 27.5873 28.7778ZM22.4286 26.3968H26.3968V22.4286H22.4286V26.3968ZM14.8889 41.4762H8.53968C8.22395 41.4762 7.92115 41.3508 7.69789 41.1275C7.47463 40.9043 7.34921 40.6014 7.34921 40.2857V33.9365C7.34921 33.6208 7.47463 33.318 7.69789 33.0947C7.92115 32.8715 8.22395 32.746 8.53968 32.746H14.8889C15.2046 32.746 15.5074 32.8715 15.7307 33.0947C15.9539 33.318 16.0794 33.6208 16.0794 33.9365V40.2857C16.0794 40.6014 15.9539 40.9043 15.7307 41.1275C15.5074 41.3508 15.2046 41.4762 14.8889 41.4762ZM9.73016 39.0952H13.6984V35.127H9.73016V39.0952ZM40.2857 51C34.3778 51 29.5714 46.1937 29.5714 40.2857C29.5714 34.3778 34.3778 29.5714 40.2857 29.5714C46.1937 29.5714 51 34.3778 51 40.2857C51 46.1937 46.1937 51 40.2857 51ZM40.2857 31.9524C35.6921 31.9524 31.9524 35.6905 31.9524 40.2857C31.9524 44.881 35.6921 48.619 40.2857 48.619C44.8794 48.619 48.619 44.881 48.619 40.2857C48.619 35.6905 44.8794 31.9524 40.2857 31.9524Z" fill="#E73725" stroke="#E73725" stroke-width="0.5"/>
<path d="M43.4608 41.4762H40.2862C39.9704 41.4762 39.6676 41.3508 39.4444 41.1275C39.2211 40.9043 39.0957 40.6015 39.0957 40.2857V35.5238C39.0957 35.2081 39.2211 34.9053 39.4444 34.682C39.6676 34.4588 39.9704 34.3333 40.2862 34.3333C40.6019 34.3333 40.9047 34.4588 41.128 34.682C41.3512 34.9053 41.4767 35.2081 41.4767 35.5238V39.0952H43.4608C43.7765 39.0952 44.0793 39.2207 44.3026 39.4439C44.5258 39.6672 44.6513 39.97 44.6513 40.2857C44.6513 40.6015 44.5258 40.9043 44.3026 41.1275C44.0793 41.3508 43.7765 41.4762 43.4608 41.4762Z" fill="#E73725" stroke="#E73725" stroke-width="0.5"/>
</svg>
