<svg width="57" height="58" viewBox="0 0 57 58" fill="none" xmlns="http://www.w3.org/2000/svg">
<g id="Frame" clip-path="url(#clip0_71_4600)">
<g id="Group">
<path id="Vector" d="M56.7178 9.46201L49.2194 16.9604L45.8075 13.5485L53.3059 5.97303C53.3955 5.8827 53.5021 5.811 53.6196 5.76206C53.737 5.71313 53.863 5.68794 53.9902 5.68794C54.1175 5.68794 54.2434 5.71313 54.3609 5.76206C54.4783 5.811 54.5849 5.8827 54.6745 5.97303L56.7178 8.0934C56.8081 8.183 56.8798 8.2896 56.9288 8.40705C56.9777 8.5245 57.0029 8.65047 57.0029 8.77771C57.0029 8.90494 56.9777 9.03091 56.9288 9.14836C56.8798 9.26581 56.8081 9.37241 56.7178 9.46201ZM28.0832 0.864868V2.79248H27.1193C26.3525 2.79248 25.6171 3.09711 25.0748 3.63935C24.5326 4.1816 24.2279 4.91704 24.2279 5.68389H22.3003C22.3003 4.91704 21.9957 4.1816 21.4534 3.63935C20.9112 3.09711 20.1758 2.79248 19.4089 2.79248H18.4451V1.82867C18.4451 1.57306 18.5466 1.32791 18.7274 1.14716C18.9081 0.966412 19.1533 0.864868 19.4089 0.864868H28.0832ZM14.6959 15.7653C14.4694 15.3182 14.1981 14.8951 13.8863 14.5027L3.1688 25.2106C3.56203 25.5248 3.98418 25.7985 4.43138 26.0298L14.6959 15.7653ZM11.2455 12.3245L0.980961 22.5794C1.21227 23.0285 1.48696 23.4545 1.80019 23.8516L12.5177 13.1437C12.1215 12.8296 11.6954 12.5552 11.2455 12.3245ZM9.23113 11.6113C8.77485 11.5146 8.30967 11.4661 7.84325 11.4667C5.8122 11.5109 3.87661 12.3375 2.44009 13.774C1.00358 15.2105 0.177035 17.1461 0.132812 19.1772C0.132813 19.6436 0.181003 20.1092 0.277383 20.565L9.23113 11.6113ZM6.44573 26.743C6.90527 26.8397 7.37365 26.8882 7.84325 26.8876C9.87431 26.8434 11.8099 26.0168 13.2464 24.5803C14.6829 23.1438 15.5095 21.2082 15.5537 19.1772C15.55 18.7078 15.5016 18.2398 15.4091 17.7796L6.44573 26.743ZM37.7212 1.82867V2.79248H36.7574C35.9905 2.79248 35.2551 3.09711 34.7129 3.63935C34.1706 4.1816 33.866 4.91704 33.866 5.68389H31.9384C31.9384 4.91704 31.6337 4.1816 31.0915 3.63935C30.5492 3.09711 29.8138 2.79248 29.047 2.79248H28.0832V0.864868H36.7574C37.013 0.864868 37.2582 0.966412 37.4389 1.14716C37.6197 1.32791 37.7212 1.57306 37.7212 1.82867ZM39.6488 5.68389V12.8932L35.7936 16.7484V5.68389C35.7936 5.42828 35.8951 5.18313 36.0759 5.00238C36.2566 4.82163 36.5018 4.72009 36.7574 4.72009H38.685C38.9406 4.72009 39.1858 4.82163 39.3665 5.00238C39.5473 5.18313 39.6488 5.42828 39.6488 5.68389ZM39.6488 33.3354V55.8017C39.6488 56.0574 39.5473 56.3025 39.3665 56.4833C39.1858 56.664 38.9406 56.7655 38.685 56.7655H36.7574C36.5018 56.7655 36.2566 56.664 36.0759 56.4833C35.8951 56.3025 35.7936 56.0574 35.7936 55.8017V37.1907L39.6488 33.3354ZM30.0108 5.68389V22.5023L26.1555 26.3575V5.68389C26.1555 5.42828 26.2571 5.18313 26.4378 5.00238C26.6186 4.82163 26.8637 4.72009 27.1193 4.72009H29.047C29.3026 4.72009 29.5477 4.82163 29.7285 5.00238C29.9092 5.18313 30.0108 5.42828 30.0108 5.68389ZM30.0108 42.9735V55.8017C30.0108 56.0574 29.9092 56.3025 29.7285 56.4833C29.5477 56.664 29.3026 56.7655 29.047 56.7655H27.1193C26.8637 56.7655 26.6186 56.664 26.4378 56.4833C26.2571 56.3025 26.1555 56.0574 26.1555 55.8017V46.8287L30.0108 42.9735ZM20.3727 5.68389V32.1114L16.5175 35.9666V5.68389C16.5175 5.42828 16.619 5.18313 16.7998 5.00238C16.9805 4.82163 17.2257 4.72009 17.4813 4.72009H19.4089C19.6645 4.72009 19.9097 4.82163 20.0904 5.00238C20.2712 5.18313 20.3727 5.42828 20.3727 5.68389ZM20.3727 52.6115V55.8017C20.3727 56.0574 20.2712 56.3025 20.0904 56.4833C19.9097 56.664 19.6645 56.7655 19.4089 56.7655H17.4813C17.3191 56.7642 17.1599 56.722 17.0184 56.6429C16.8769 56.5637 16.7576 56.4501 16.6717 56.3126L20.3727 52.6115ZM48.7278 21.5385L13.7899 56.4764C13.7003 56.5667 13.5937 56.6384 13.4763 56.6874C13.3588 56.7363 13.2329 56.7615 13.1056 56.7615C12.9784 56.7615 12.8524 56.7363 12.735 56.6874C12.6175 56.6384 12.5109 56.5667 12.4213 56.4764L6.21442 50.3273C6.03491 50.1467 5.93415 49.9025 5.93415 49.6479C5.93415 49.3932 6.03491 49.1489 6.21442 48.9684L41.2294 14.0401C41.3726 13.8954 41.5579 13.7998 41.7587 13.7669C41.9595 13.734 42.1656 13.7655 42.3475 13.857L44.4678 14.9171L47.8701 18.3194L48.9302 20.4205C49.0193 20.6042 49.0477 20.8115 49.0113 21.0125C48.9749 21.2134 48.8757 21.3976 48.7278 21.5385Z" fill="#8C8C8C"/>
<path id="Vector_2" d="M48.7273 21.5385L13.7894 56.4765C13.6998 56.5668 13.5932 56.6385 13.4757 56.6874C13.3583 56.7364 13.2323 56.7615 13.1051 56.7615C12.9778 56.7615 12.8519 56.7364 12.7344 56.6874C12.617 56.6385 12.5104 56.5668 12.4208 56.4765L6.21386 50.3274C6.03435 50.1468 5.93359 49.9025 5.93359 49.6479C5.93359 49.3933 6.03435 49.149 6.21386 48.9684L41.2289 14.0401C41.372 13.8955 41.5573 13.7998 41.7581 13.7669C41.959 13.7341 42.1651 13.7656 42.3469 13.857L44.4673 14.9172L47.8695 18.3194L48.9297 20.4205C49.0187 20.6043 49.0471 20.8116 49.0107 21.0125C48.9744 21.2134 48.8751 21.3976 48.7273 21.5385Z" fill="#8C8C8C"/>
</g>
</g>
<defs>
<clipPath id="clip0_71_4600">
<rect width="56.8645" height="56.8645" fill="white" transform="translate(0.132812 0.383057)"/>
</clipPath>
</defs>
</svg>
