<svg width="10" height="7" viewBox="0 0 10 7" fill="none" xmlns="http://www.w3.org/2000/svg">
<path d="M1.49235 4.02461e-06L8.50765 4.63791e-06C8.78461 -0.00037347 9.05602 0.0731544 9.29046 0.212077C9.5249 0.350999 9.7128 0.549636 9.83239 0.784996C9.97239 1.06425 10.0263 1.37494 9.98802 1.68167C9.94972 1.98839 9.82073 2.27881 9.61577 2.51983L6.10812 6.52328C5.97046 6.67293 5.80028 6.79294 5.60909 6.87519C5.4179 6.95745 5.21018 7.00001 5 7.00001C4.78982 7.00001 4.5821 6.95745 4.39091 6.87519C4.19972 6.79294 4.02954 6.67293 3.89188 6.52328L0.384231 2.51983C0.179266 2.27881 0.0502848 1.98839 0.0119843 1.68167C-0.0263152 1.37494 0.0276084 1.06425 0.167609 0.784995C0.287203 0.549636 0.475097 0.350999 0.709541 0.212076C0.943986 0.0731537 1.21539 -0.000374131 1.49235 4.02461e-06Z" fill="black"/>
</svg>
