<?xml version="1.0" encoding="iso-8859-1"?>
<!-- Uploaded to: SVG Repo, www.svgrepo.com, Generator: SVG Repo Mixer Tools -->
<svg fill="#000000" version="1.1" id="Layer_1" xmlns="http://www.w3.org/2000/svg" xmlns:xlink="http://www.w3.org/1999/xlink" 
	 viewBox="0 0 512.001 512.001" xml:space="preserve">
<g>
	<g>
		<path d="M495.839,421.214v-33.043h-44.057v-11.014h-11.014c-30.415,0-55.071,24.656-55.071,55.071
			c0,30.415,24.656,55.071,55.071,55.071h11.014v-11.014h44.057v-33.043h-44.057v-22.029H495.839z"/>
	</g>
</g>
<g>
	<g>
		<rect x="22.227" y="46.734" width="66.085" height="66.085"/>
	</g>
</g>
<g>
	<g>
		<path d="M441.899,206.689c-10.752-6.211-31.432-9.934-45.632-4.021c3.848-10.888,5.95-22.592,5.95-34.781
			c0-12.191-2.103-23.898-5.952-34.787c14.197,5.911,34.877,2.189,45.629-4.025c14.669-8.102,20.456-28.854,12.094-45.135
			c-9.919-15.382-30.785-20.746-45.136-12.095c-10.282,5.935-23.137,20.865-25.975,35.495
			c-13.101-18.403-32.004-32.403-54.015-39.312c8.165-10.249,12.776-24.994,12.773-34.984C341.952,16.286,326.873,0.899,308.592,0
			c-18.281,0.899-33.36,16.287-33.043,33.043c-0.002,8.523,3.356,20.506,9.411,30.208h-84.898
			c6.055-9.702,9.413-21.685,9.411-30.208C209.79,16.286,194.711,0.899,176.43,0c-18.281,0.899-33.36,16.287-33.043,33.043
			c-0.002,8.523,3.356,20.506,9.411,30.208h-31.442v33.043h176.228c39.476,0,71.593,32.116,71.593,71.593
			c0,24.365-12.243,45.913-30.891,58.85c2.186-6.241,3.352-12.453,3.351-17.465c0.317-16.757-14.761-32.144-33.043-33.043
			c-18.281,0.899-33.36,16.287-33.043,33.043c-0.002,8.523,3.356,20.506,9.411,30.208h-84.898
			c6.055-9.702,9.413-21.685,9.411-30.208c0.317-16.757-14.761-32.144-33.043-33.043c-18.281,0.899-33.36,16.287-33.043,33.043
			c-0.002,8.731,3.517,21.099,9.854,30.92c-25.791,3-48.75,15.41-65.34,33.705c-5.183-11.135-14.74-21.206-22.744-25.823
			c-14.353-8.652-35.218-3.288-45.136,12.094c-8.363,16.282-2.575,37.034,12.094,45.139c7.989,4.615,21.458,7.853,33.678,6.789
			c-3.254,10.097-5.018,20.857-5.018,32.021c0,11.161,1.763,21.916,5.015,32.011c-12.22-1.064-25.691,2.174-33.679,6.79
			c-14.67,8.103-20.457,28.855-12.095,45.136c9.919,15.384,30.785,20.748,45.137,12.096c8.003-4.617,17.558-14.686,22.742-25.821
			c19.158,21.131,46.813,34.424,77.515,34.424h53.463c-6.055,9.702-9.413,21.686-9.411,30.208
			c-0.317,16.757,14.761,32.144,33.043,33.043c18.281-0.899,33.36-16.287,33.043-33.043c0.002-8.523-3.356-20.506-9.411-30.208
			h88.091c-1.02-5.355-1.576-10.873-1.576-16.521s0.555-11.166,1.576-16.521h-22.005c6.055-9.702,9.413-21.685,9.411-30.208
			c0.317-16.757-14.761-32.144-33.043-33.043c-18.281,0.899-33.36,16.287-33.043,33.043c-0.002,8.523,3.356,20.506,9.411,30.208
			h-84.898c6.055-9.702,9.413-21.685,9.411-30.208c0.317-16.757-14.761-32.144-33.043-33.043
			c-18.281,0.899-33.36,16.287-33.043,33.043c-0.002,8.153,3.07,19.473,8.635,28.934c-33.097-6.289-58.204-35.418-58.204-70.318
			c0.001-39.478,32.116-71.595,71.594-71.595h132.171c35.155,0,66.316-17.427,85.299-44.094
			c2.838,14.629,15.692,29.56,25.975,35.492c14.352,8.653,35.217,3.288,45.136-12.095
			C462.356,235.544,456.568,214.792,441.899,206.689z"/>
	</g>
</g>
</svg>