<svg width="57" height="58" viewBox="0 0 57 58" fill="none" xmlns="http://www.w3.org/2000/svg">
<g id="Frame" clip-path="url(#clip0_71_4546)">
<g id="Group">
<path id="Vector" d="M17.8666 2.46368C14.3432 3.89179 11.1441 6.01608 8.46074 8.70941C5.81652 11.3469 3.71957 14.4809 2.2904 17.9313C0.861219 21.3818 0.127987 25.0806 0.132836 28.8153C0.132836 32.5074 0.833703 36.1076 2.21501 39.513C3.64293 43.0365 5.76724 46.2357 8.46074 48.9189C11.1435 51.6129 14.3428 53.7373 17.8666 55.1646C21.2646 56.5449 24.8983 57.2518 28.5659 57.246C32.3002 57.2504 35.9986 56.517 39.4487 55.088C42.8988 53.659 46.0327 51.5625 48.6702 48.9189C51.3646 46.2364 53.489 43.037 54.9159 39.513C56.2953 36.1153 57.0019 32.4823 56.9965 28.8153C56.9965 25.1224 56.2965 21.5222 54.9159 18.1153C53.4859 14.589 51.3833 11.4225 48.6702 8.70941C45.9571 5.9963 42.7938 3.8937 39.2643 2.46368C35.8663 1.08477 32.233 0.378186 28.5659 0.383082C24.873 0.383082 21.2736 1.08316 17.8666 2.46368ZM7.23893 40.7843C5.86941 39.9247 4.60754 38.9347 3.49024 37.7687C1.78999 32.9728 1.48994 27.7921 2.62516 22.832C3.15694 21.7815 3.76571 20.7717 4.44647 19.8109C4.65783 19.5131 4.85347 19.2028 5.07976 18.9136L11.496 22.7102V22.8713C11.4817 26.3156 11.8274 29.7519 12.5276 33.1242C12.53 33.14 12.5324 33.1486 12.5355 33.1627L7.55951 40.965C7.44988 40.9098 7.34291 40.8495 7.23893 40.7843ZM26.3163 53.9742C27.417 54.5366 28.5588 55.0147 29.7319 55.4043C24.6895 55.6284 19.687 54.4167 15.306 51.9101L26.0618 53.8265C26.1443 53.8792 26.2283 53.9295 26.3163 53.9742ZM26.277 52.0327L13.5844 49.7706C12.0994 47.9674 10.7637 46.0596 9.61575 44.0207C9.32346 43.5021 8.99739 42.9984 8.74988 42.4571L13.7212 34.6627C13.8312 34.6902 13.9537 34.7193 14.0928 34.7562C17.2027 35.5883 20.3676 36.1799 23.5545 36.6435C23.7407 36.6694 23.8963 36.6922 24.0291 36.7064L29.988 47.0096C28.9555 48.4649 27.906 49.9081 26.8396 51.3389C26.6621 51.577 26.4735 51.8056 26.277 52.0327ZM47.3942 47.6437C46.4001 48.6392 45.3281 49.5538 44.1884 50.3788C44.0029 48.8954 43.6812 47.4322 43.2275 46.0078L49.5856 34.1465C51.337 33.349 53.0263 32.4446 54.5946 31.3234C54.7997 31.178 54.9702 31.0154 55.1022 30.8378C54.6417 36.9672 52.0724 42.9662 47.3942 47.6437ZM47.1121 32.2607C47.3486 32.7117 47.582 33.1675 47.8161 33.6295L41.6749 45.0853C41.6395 45.0932 41.6058 45.101 41.5704 45.1058C38.2593 45.729 34.8988 46.0521 31.5296 46.0714L25.401 35.4743C26.3545 33.7026 27.3 31.9266 28.2374 30.1463C28.8739 28.9395 29.4993 27.7247 30.124 26.5108L42.8079 25.2081C44.3613 27.4867 45.833 29.814 47.1121 32.2607ZM44.5389 18.6724C43.937 20.2619 43.2927 21.8349 42.6523 23.4111L30.296 24.6801C30.149 24.4846 29.9949 24.2946 29.834 24.1104C28.3749 22.458 26.9064 20.8159 25.4403 19.169C25.4536 19.1525 25.467 19.1399 25.4803 19.125C24.8887 18.5341 24.2955 17.9432 23.7038 17.3508L27.1437 6.99417C27.3789 6.92895 27.6187 6.88167 27.8611 6.85274C29.7311 6.6626 31.6035 6.44731 33.4782 6.33888C34.6262 6.27445 35.7804 6.23752 36.948 6.32002L45.459 15.9129C45.1659 16.8385 44.8799 17.7665 44.5389 18.6724ZM47.3942 9.98543C49.6763 12.2634 51.5236 14.9386 52.8456 17.8796C51.255 16.7916 49.5526 15.8768 47.7674 15.1508C47.4862 15.037 47.2016 14.9317 46.9141 14.8349L38.5367 5.39286C38.5949 4.98507 38.6255 4.5765 38.6381 4.16478C41.9162 5.50073 44.8935 7.47989 47.3942 9.98543ZM20.0384 3.66898C20.0714 3.69334 20.0871 3.71377 20.106 3.71927C22.0208 4.38085 23.7627 5.35515 25.4049 6.51095L22.1913 16.1887C22.1749 16.193 22.1589 16.1986 22.1434 16.2052C21.4857 16.4771 20.8155 16.7207 20.168 17.0153C17.5005 18.2277 14.8998 19.5705 12.4499 21.1804L6.10827 17.4286C6.11521 17.2313 6.15258 17.0362 6.21906 16.8503C6.64493 15.7157 7.06372 14.5748 7.54537 13.463C7.91765 12.6099 8.33655 11.7779 8.80017 10.9707C11.8629 7.56938 15.7553 5.02031 20.0973 3.57234C20.0777 3.60298 20.0573 3.6352 20.0384 3.66898Z" fill="#8C8C8C"/>
</g>
</g>
<defs>
<clipPath id="clip0_71_4546">
<rect width="56.8645" height="56.8645" fill="white" transform="translate(0.132812 0.383057)"/>
</clipPath>
</defs>
</svg>
