<svg width="24" height="26" viewBox="0 0 24 26" fill="none" xmlns="http://www.w3.org/2000/svg">
<g id="Social icon" clip-path="url(#clip0_48_6237)">
<path id="Vector" d="M23.7663 13.2948C23.7663 12.4247 23.7001 11.5498 23.559 10.6938H12.2402V15.6229H18.722C18.453 17.2126 17.5888 18.6189 16.3233 19.5125V22.7107H20.1903C22.4611 20.4814 23.7663 17.1891 23.7663 13.2948Z" fill="#4285F4"/>
<path id="Vector_2" d="M12.2391 25.8008C15.4756 25.8008 18.205 24.6674 20.1936 22.7108L16.3266 19.5126C15.2507 20.2933 13.8618 20.7354 12.2435 20.7354C9.11291 20.7354 6.45849 18.4825 5.50607 15.4536H1.51562V18.7506C3.55274 23.0729 7.70192 25.8008 12.2391 25.8008Z" fill="#34A853"/>
<path id="Vector_3" d="M5.50277 15.4537C5.00011 13.864 5.00011 12.1426 5.50277 10.5529V7.25586H1.51674C-0.185266 10.8727 -0.185266 15.1339 1.51674 18.7507L5.50277 15.4537Z" fill="#FBBC04"/>
<path id="Vector_4" d="M12.2391 5.26625C13.9499 5.23804 15.6034 5.92472 16.8425 7.1852L20.2685 3.53074C18.0991 1.35782 15.2198 0.163187 12.2391 0.200814C7.70192 0.200814 3.55274 2.92872 1.51562 7.25575L5.50166 10.5528C6.44967 7.51913 9.1085 5.26625 12.2391 5.26625Z" fill="#EA4335"/>
</g>
<defs>
<clipPath id="clip0_48_6237">
<rect width="24" height="25.6" fill="white" transform="translate(0 0.199951)"/>
</clipPath>
</defs>
</svg>
