<svg width="46" height="46" viewBox="0 0 46 46" fill="none" xmlns="http://www.w3.org/2000/svg">
<path d="M41.2635 33.9627L35.1204 29.6688C34.6097 29.3121 34.0337 29.0596 33.4254 28.9256C32.817 28.7916 32.1882 28.7788 31.575 28.8879C30.9617 28.997 30.3759 29.2259 29.8511 29.5615C29.3263 29.8971 28.8728 30.3328 28.5164 30.8438L27.0902 32.8873C24.7005 31.2847 22.0329 29.0458 19.4905 26.5043C16.9491 23.9629 14.7111 21.2953 13.1084 18.9047L15.1511 17.4794C17.2952 15.9858 17.8224 13.0224 16.326 10.8735L12.034 4.73137C11.136 3.44737 9.68793 2.68114 8.15927 2.68114C7.63012 2.68114 7.11045 2.77408 6.61544 2.95615C6.05735 3.16144 5.52216 3.42427 5.0185 3.7404L4.17072 4.33782C3.96043 4.50361 3.76059 4.68223 3.57235 4.87267C2.53775 5.90726 1.80282 7.21686 1.38841 8.76544C-0.38017 15.3941 4.00098 25.4176 12.2891 33.7057C19.2496 40.6662 27.6117 44.9905 34.1114 44.9905H34.1133C35.1646 44.998 36.2123 44.8689 37.2304 44.6064C38.7789 44.193 40.0885 43.458 41.1222 42.4234C41.3118 42.2357 41.492 42.0375 41.6845 41.7881L42.2819 40.9346C42.5759 40.4643 42.8301 39.9417 43.0387 39.3794C43.7613 37.4259 43.0321 35.1983 41.2635 33.9627ZM41.2597 38.7222C41.0966 39.1632 40.8993 39.57 40.7021 39.8877L40.1597 40.6615C40.0426 40.8097 39.9162 40.9504 39.7813 41.0826C38.9857 41.8791 37.9624 42.4481 36.741 42.7743C35.9445 42.9877 35.0606 43.0948 34.1133 43.0948H34.1114C28.0963 43.0948 20.2473 38.983 13.63 32.3658C5.92697 24.6618 1.64635 15.1589 3.22147 9.25571C3.54769 8.0343 4.11667 7.01108 4.91324 6.21451C5.046 6.08175 5.18446 5.95278 5.2973 5.86364L6.06543 5.32216C6.42768 5.09646 6.83355 4.90017 7.27451 4.73706C7.5571 4.6318 7.85582 4.57869 8.15927 4.57869C9.06964 4.57869 9.93639 5.04241 10.4798 5.81907L14.7699 11.9593C15.2017 12.5786 15.3702 13.3439 15.2383 14.0873C15.1063 14.8307 14.6848 15.4913 14.0662 15.9242L11.2706 17.8758C11.071 18.0152 10.9326 18.2261 10.8843 18.4648C10.8359 18.7035 10.8812 18.9517 11.0108 19.1579C12.7026 21.8491 15.2383 24.9349 18.1496 27.8462C21.0609 30.7575 24.1457 33.2923 26.8389 34.9869C27.0453 35.1162 27.2934 35.1612 27.532 35.1126C27.7707 35.0641 27.9815 34.9257 28.121 34.7261L30.0726 31.9286C30.9374 30.6863 32.7857 30.3544 34.0355 31.225L40.1777 35.517C41.2388 36.2585 41.6836 37.5767 41.2587 38.7222H41.2597ZM38.1028 7.893C34.0216 3.80838 28.5886 1.35562 22.8257 0.996015C22.5815 0.9919 22.3451 1.08208 22.1656 1.2478C21.9862 1.41352 21.8776 1.64203 21.8623 1.8858C21.847 2.12957 21.9263 2.36984 22.0837 2.55666C22.241 2.74347 22.4643 2.86244 22.7071 2.88882C28.0084 3.21996 33.0061 5.47603 36.7609 9.23295C40.5184 12.9875 42.7748 17.9853 43.106 23.2868C43.1246 23.5355 43.2404 23.767 43.4284 23.931C43.6164 24.095 43.8615 24.1782 44.1105 24.1628C44.3595 24.1473 44.5924 24.0343 44.7587 23.8483C44.9249 23.6624 45.0112 23.4183 44.9988 23.1692C44.639 17.4063 42.1862 11.9734 38.1018 7.89205L38.1028 7.893Z" fill="#E73725" stroke="#E73725"/>
<path d="M22.3519 8.5672C26.2704 8.81218 29.9644 10.4801 32.7395 13.2575C35.5163 16.0325 37.1839 19.7262 37.4289 23.6442C37.4469 23.8935 37.5625 24.1256 37.7508 24.2901C37.939 24.4546 38.1845 24.5381 38.434 24.5224C38.6834 24.5068 38.9167 24.3933 39.0829 24.2067C39.2491 24.02 39.3349 23.7753 39.3217 23.5257C39.0483 19.1464 37.1844 15.0179 34.0804 11.9166C30.9788 8.8124 26.85 6.94816 22.4704 6.67439C22.3454 6.66538 22.2199 6.68122 22.1011 6.72099C21.9823 6.76076 21.8726 6.82369 21.7782 6.90612C21.6839 6.98856 21.6068 7.08887 21.5514 7.20127C21.4961 7.31367 21.4635 7.43592 21.4557 7.56096C21.4479 7.68601 21.4649 7.81136 21.5058 7.92979C21.5467 8.04821 21.6107 8.15736 21.694 8.25093C21.7773 8.34449 21.8784 8.42061 21.9913 8.4749C22.1042 8.52918 22.2267 8.56056 22.3519 8.5672Z" fill="#E73725" stroke="#E73725"/>
<path d="M21.9961 14.2457C24.5309 14.4046 26.9205 15.4837 28.7158 17.2802C30.5123 19.0755 31.5914 21.4651 31.7503 23.9999C31.757 24.125 31.7884 24.2475 31.8426 24.3605C31.8969 24.4734 31.973 24.5744 32.0666 24.6577C32.1602 24.7411 32.2693 24.805 32.3877 24.8459C32.5062 24.8868 32.6315 24.9039 32.7566 24.896C32.8816 24.8882 33.0039 24.8557 33.1163 24.8003C33.2287 24.745 33.329 24.6679 33.4114 24.5735C33.4938 24.4792 33.5568 24.3694 33.5965 24.2506C33.6363 24.1318 33.6522 24.0063 33.6431 23.8813C33.4554 20.8854 32.18 18.0612 30.0567 15.9393C27.9349 13.8159 25.1106 12.5405 22.1147 12.3529C21.9901 12.3443 21.8651 12.3605 21.7469 12.4005C21.6287 12.4406 21.5197 12.5038 21.4261 12.5864C21.3325 12.6689 21.2562 12.7693 21.2017 12.8816C21.1472 12.9939 21.1155 13.1158 21.1085 13.2405C21.0929 13.4915 21.1777 13.7384 21.3442 13.9269C21.5106 14.1154 21.7451 14.2301 21.9961 14.2457Z" fill="#E73725" stroke="#E73725"/>
</svg>
