<svg width="50" height="39" viewBox="0 0 50 39" fill="none" xmlns="http://www.w3.org/2000/svg">
<path d="M15.932 -0.00549316C11.6662 -0.00549316 8.07769 3.05289 7.24971 7.08642H1.77298C1.30275 7.08642 0.851791 7.27321 0.519293 7.60571C0.186795 7.93821 0 8.38917 0 8.8594C0 9.32962 0.186795 9.78058 0.519293 10.1131C0.851791 10.4456 1.30275 10.6324 1.77298 10.6324H7.24793C8.07591 14.6659 11.6644 17.7243 15.9338 17.7243C20.2013 17.7243 23.7898 14.6659 24.6178 10.6324H47.8208C50.2178 10.6678 50.2178 7.05096 47.8208 7.08642H24.6178C23.7898 3.05289 20.2013 -0.00549316 15.9338 -0.00549316H15.932ZM15.932 3.54046C18.8929 3.54046 21.2509 5.9003 21.2509 8.8594C21.2509 11.8185 18.8929 14.1783 15.932 14.1783C12.9747 14.1783 10.613 11.8185 10.613 8.8594C10.613 5.9003 12.9747 3.54046 15.932 3.54046ZM33.6635 21.2702C29.396 21.2702 25.8057 24.3286 24.9777 28.3622H1.77298C1.30275 28.3622 0.851791 28.5489 0.519293 28.8814C0.186795 29.2139 0 29.6649 0 30.1351C0 30.6054 0.186795 31.0563 0.519293 31.3888C0.851791 31.7213 1.30275 31.9081 1.77298 31.9081H24.9777C25.8057 35.9416 29.396 39 33.6635 39C37.9311 39 41.5214 35.9416 42.3493 31.9081H47.8208C50.2178 31.9436 50.2178 28.3267 47.8208 28.3622H42.3493C41.5214 24.3286 37.9311 21.2702 33.6635 21.2702ZM33.6635 24.8162C36.6226 24.8162 38.9825 27.176 38.9825 30.1351C38.9825 33.0942 36.6226 35.4541 33.6635 35.4541C30.7044 35.4541 28.3446 33.0942 28.3446 30.1351C28.3446 27.176 30.7044 24.8162 33.6635 24.8162Z" fill="#E73725"/>
</svg>
