<svg width="46" height="50" viewBox="0 0 46 50" fill="none" xmlns="http://www.w3.org/2000/svg">
<path d="M23 49.9383C22.2979 49.9376 21.6077 49.7573 20.9949 49.4146L13.0451 44.9986C9.09277 42.8012 5.79941 39.5875 3.50588 35.6902C1.21234 31.7929 0.00196619 27.3534 2.55658e-08 22.8313V10.5741C-0.000113523 9.55409 0.378013 8.57032 1.06125 7.81301C1.74448 7.0557 2.68428 6.57866 3.69887 6.47416C6.86185 6.1389 9.9748 5.43508 12.9744 4.37703C15.7245 3.40487 18.3627 2.14112 20.8439 0.607387C21.4929 0.210192 22.2391 0 23 0C23.7609 0 24.5071 0.210192 25.1561 0.607387C27.6375 2.14069 30.2757 3.40441 33.0256 4.37703C36.0252 5.43508 39.1381 6.1389 42.3011 6.47416C43.3157 6.57866 44.2555 7.0557 44.9388 7.81301C45.622 8.57032 46.0001 9.55409 46 10.5741V22.8313C45.998 27.3534 44.7877 31.7929 42.4941 35.6902C40.2006 39.5875 36.9072 42.8012 32.9549 44.9986L25.0051 49.4169C24.3922 49.759 23.7019 49.9385 23 49.9383ZM23 3.53723C22.8962 3.53631 22.7942 3.56407 22.7051 3.61744C20.0088 5.28396 17.1421 6.65761 14.1538 7.71498C10.8943 8.86541 7.51134 9.6302 4.07395 9.99374C3.92794 10.0062 3.7919 10.0729 3.69274 10.1808C3.59358 10.2887 3.53853 10.4299 3.53846 10.5764V22.8336C3.53973 26.7248 4.58093 30.545 6.55431 33.8986C8.52769 37.2523 11.3615 40.0176 14.7625 41.9083L22.7122 46.3243C22.7994 46.3733 22.8977 46.399 22.9976 46.399C23.0976 46.399 23.1959 46.3733 23.2831 46.3243L31.2375 41.9083C34.6385 40.0176 37.4723 37.2523 39.4457 33.8986C41.4191 30.545 42.4603 26.7248 42.4615 22.8336V10.5741C42.4615 10.4275 42.4064 10.2863 42.3073 10.1784C42.2081 10.0705 42.0721 10.0038 41.9261 9.99139C38.4887 9.62784 35.1057 8.86305 31.8462 7.71262C28.8581 6.65675 25.9914 5.28469 23.2949 3.6198C23.2063 3.56514 23.1041 3.53652 23 3.53723Z" fill="#E73725"/>
<path d="M21.8207 30.2243C21.3872 30.2247 20.9689 30.0651 20.6459 29.7761L15.3382 25.0582C15.0091 24.7411 14.8154 24.309 14.7978 23.8523C14.7802 23.3956 14.94 22.9499 15.2437 22.6084C15.5474 22.2669 15.9714 22.0561 16.427 22.0203C16.8826 21.9844 17.3344 22.1263 17.6877 22.4161L21.7074 25.9876L29.3765 17.809C29.5344 17.6356 29.7252 17.4953 29.9378 17.3963C30.1504 17.2973 30.3806 17.2416 30.6149 17.2323C30.8493 17.2231 31.0831 17.2605 31.3028 17.3425C31.5226 17.4244 31.7239 17.5493 31.8949 17.7097C32.066 17.8701 32.2035 18.063 32.2993 18.277C32.3952 18.4911 32.4475 18.722 32.4533 18.9565C32.4591 19.191 32.4182 19.4242 32.3331 19.6427C32.2479 19.8613 32.1201 20.0607 31.9572 20.2293L23.111 29.6652C22.9458 29.842 22.746 29.9829 22.524 30.0791C22.302 30.1753 22.0626 30.2247 21.8207 30.2243Z" fill="#E73725"/>
</svg>
