<svg width="49" height="49" viewBox="0 0 49 49" fill="none" xmlns="http://www.w3.org/2000/svg">
<path d="M41.8242 31.6758C39.1557 29.0074 35.9795 27.032 32.5141 25.8362C36.2256 23.2799 38.6641 19.0017 38.6641 14.1641C38.6641 6.35402 32.31 0 24.5 0C16.69 0 10.3359 6.35402 10.3359 14.1641C10.3359 19.0017 12.7744 23.2799 16.486 25.8362C13.0206 27.032 9.84441 29.0074 7.17592 31.6758C2.54848 36.3034 0 42.4558 0 49H3.82812C3.82812 37.6015 13.1015 28.3281 24.5 28.3281C35.8985 28.3281 45.1719 37.6015 45.1719 49H49C49 42.4558 46.4515 36.3034 41.8242 31.6758ZM24.5 24.5C18.8008 24.5 14.1641 19.8634 14.1641 14.1641C14.1641 8.46475 18.8008 3.82812 24.5 3.82812C30.1992 3.82812 34.8359 8.46475 34.8359 14.1641C34.8359 19.8634 30.1992 24.5 24.5 24.5Z" fill="#E73725"/>
</svg>
