<?xml version="1.0" encoding="utf-8"?><!-- Uploaded to: SVG Repo, www.svgrepo.com, Generator: SVG Repo Mixer Tools -->
<svg version="1.1" id="Uploaded to svgrepo.com" xmlns="http://www.w3.org/2000/svg" xmlns:xlink="http://www.w3.org/1999/xlink" 
	 width="800px" height="800px" viewBox="0 0 32 32" xml:space="preserve">
<style type="text/css">
	.blueprint_een{fill:#111918;}
</style>
<path class="blueprint_een" d="M28,0H4C3.448,0,3,0.447,3,1v30c0,0.553,0.448,1,1,1h24c0.552,0,1-0.447,1-1V1
	C29,0.447,28.552,0,28,0z M27,2v7h-1.277C25.894,8.705,26,8.366,26,8V5c0-1.105-0.895-2-2-2h-5c-1.105,0-2,0.895-2,2v3
	c0,0.366,0.106,0.705,0.277,1h-2.555C14.894,8.705,15,8.366,15,8V5c0-1.105-0.895-2-2-2H8C6.895,3,6,3.895,6,5v3
	c0,0.366,0.106,0.705,0.277,1H5V2H27z M7,8V5c0-0.551,0.449-1,1-1h5c0.551,0,1,0.449,1,1v3c0,0.551-0.449,1-1,1H8
	C7.449,9,7,8.551,7,8z M27,10v4H5v-4H27z M18,8V5c0-0.551,0.449-1,1-1h5c0.551,0,1,0.449,1,1v3c0,0.551-0.449,1-1,1h-5
	C18.449,9,18,8.551,18,8z M5,30V15h22v15H5z"/>
</svg>