<svg width="57" height="58" viewBox="0 0 57 58" fill="none" xmlns="http://www.w3.org/2000/svg">
<g id="Frame" clip-path="url(#clip0_71_4538)">
<g id="Group">
<path id="Vector" d="M17.7358 2.46368C14.2123 3.89179 11.0132 6.01608 8.32988 8.70941C5.68566 11.3469 3.58871 14.4809 2.15954 17.9313C0.73036 21.3818 -0.0028723 25.0806 0.00197702 28.8153C0.00197702 32.5074 0.702844 36.1076 2.08415 39.513C3.51207 43.0365 5.63638 46.2357 8.32988 48.9189C11.0126 51.6129 14.2119 53.7373 17.7358 55.1646C21.1337 56.5449 24.7675 57.2518 28.435 57.246C32.1693 57.2504 35.8678 56.517 39.3179 55.088C42.768 53.659 45.9018 51.5625 48.5394 48.9189C51.2337 46.2364 53.3581 43.037 54.7851 39.513C56.1644 36.1153 56.871 32.4823 56.8657 28.8153C56.8657 25.1224 56.1656 21.5222 54.7851 18.1153C53.3551 14.589 51.2525 11.4225 48.5394 8.70941C45.8262 5.9963 42.6629 3.8937 39.1334 2.46368C35.7354 1.08477 32.1021 0.378186 28.435 0.383082C24.7421 0.383082 21.1427 1.08316 17.7358 2.46368ZM7.10807 40.7843C5.73855 39.9247 4.47668 38.9347 3.35938 37.7687C1.65913 32.9728 1.35908 27.7921 2.4943 22.832C3.02608 21.7815 3.63485 20.7717 4.31561 19.8109C4.52697 19.5131 4.72261 19.2028 4.9489 18.9136L11.3651 22.7102V22.8713C11.3508 26.3156 11.6966 29.7519 12.3968 33.1242C12.3991 33.14 12.4015 33.1486 12.4046 33.1627L7.42865 40.965C7.31902 40.9098 7.21205 40.8495 7.10807 40.7843ZM26.1855 53.9742C27.2862 54.5366 28.428 55.0147 29.601 55.4043C24.5586 55.6284 19.5561 54.4167 15.1751 51.9101L25.9309 53.8265C26.0134 53.8792 26.0975 53.9295 26.1855 53.9742ZM26.1462 52.0327L13.4536 49.7706C11.9686 47.9674 10.6328 46.0596 9.48489 44.0207C9.1926 43.5021 8.86653 42.9984 8.61902 42.4571L13.5903 34.6627C13.7003 34.6902 13.8229 34.7193 13.962 34.7562C17.0719 35.5883 20.2368 36.1799 23.4237 36.6435C23.6099 36.6694 23.7654 36.6922 23.8982 36.7064L29.8572 47.0096C28.8247 48.4649 27.7751 49.9081 26.7088 51.3389C26.5312 51.577 26.3426 51.8056 26.1462 52.0327ZM47.2633 47.6437C46.2692 48.6392 45.1972 49.5538 44.0576 50.3788C43.872 48.8954 43.5504 47.4322 43.0966 46.0078L49.4547 34.1465C51.2061 33.349 52.8954 32.4446 54.4637 31.3234C54.6688 31.178 54.8393 31.0154 54.9713 30.8378C54.5109 36.9672 51.9415 42.9662 47.2633 47.6437ZM46.9813 32.2607C47.2178 32.7117 47.4511 33.1675 47.6853 33.6295L41.544 45.0853C41.5087 45.0932 41.4749 45.101 41.4395 45.1058C38.1285 45.729 34.7679 46.0521 31.3988 46.0714L25.2701 35.4743C26.2236 33.7026 27.1691 31.9266 28.1066 30.1463C28.743 28.9395 29.3684 27.7247 29.9931 26.5108L42.6771 25.2081C44.2304 27.4867 45.7021 29.814 46.9813 32.2607ZM44.408 18.6724C43.8061 20.2619 43.1619 21.8349 42.5215 23.4111L30.1652 24.6801C30.0181 24.4846 29.864 24.2946 29.7032 24.1104C28.2441 22.458 26.7756 20.8159 25.3094 19.169C25.3228 19.1525 25.3361 19.1399 25.3495 19.125C24.7578 18.5341 24.1646 17.9432 23.5729 17.3508L27.0128 6.99417C27.248 6.92895 27.4879 6.88167 27.7302 6.85274C29.6002 6.6626 31.4726 6.44731 33.3474 6.33888C34.4953 6.27445 35.6495 6.23752 36.8171 6.32002L45.3281 15.9129C45.035 16.8385 44.749 17.7665 44.408 18.6724ZM47.2633 9.98543C49.5454 12.2634 51.3928 14.9386 52.7147 17.8796C51.1241 16.7916 49.4217 15.8768 47.6366 15.1508C47.3553 15.037 47.0708 14.9317 46.7833 14.8349L38.4059 5.39286C38.464 4.98507 38.4946 4.5765 38.5072 4.16478C41.7854 5.50073 44.7627 7.47989 47.2633 9.98543ZM19.9075 3.66898C19.9405 3.69334 19.9562 3.71377 19.9751 3.71927C21.8899 4.38085 23.6319 5.35515 25.274 6.51095L22.0604 16.1887C22.0441 16.193 22.028 16.1986 22.0125 16.2052C21.3548 16.4771 20.6846 16.7207 20.0372 17.0153C17.3696 18.2277 14.7689 19.5705 12.319 21.1804L5.97742 17.4286C5.98435 17.2313 6.02172 17.0362 6.0882 16.8503C6.51407 15.7157 6.93286 14.5748 7.41451 13.463C7.78679 12.6099 8.20569 11.7779 8.66931 10.9707C11.7321 7.56938 15.6245 5.02031 19.9665 3.57234C19.9468 3.60298 19.9264 3.6352 19.9075 3.66898Z" fill="#8C8C8C"/>
</g>
</g>
<defs>
<clipPath id="clip0_71_4538">
<rect width="56.8645" height="56.8645" fill="white" transform="translate(0.00195312 0.383057)"/>
</clipPath>
</defs>
</svg>
