<?xml version="1.0" encoding="iso-8859-1"?>
<!-- Uploaded to: SVG Repo, www.svgrepo.com, Generator: SVG Repo Mixer Tools -->
<svg fill="#000000" height="800px" width="800px" version="1.1" id="Layer_1" xmlns="http://www.w3.org/2000/svg" xmlns:xlink="http://www.w3.org/1999/xlink" 
	 viewBox="0 0 512 512" xml:space="preserve">
<g>
	<g>
		<path d="M339.49,242.424l131.218-11.136c1.091-0.127,1.84-0.188,2.52-0.238c-2.832-26.345-6.722-50.953-11.716-73.299
			c-1.706-7.63-8.478-13.055-16.294-13.055h-9.799C417.343,61.264,342.716,0,256.001,0S94.659,61.264,76.583,144.696h-9.799
			c-7.815,0-14.586,5.424-16.294,13.055c-4.998,22.358-8.889,46.976-11.72,73.335c0.688,0.042,1.38,0.053,2.057,0.137
			l131.739,11.206c34.848,2.897,61.174,31.506,61.174,66.549v61.109c0,34.788-26.174,63.397-60.88,66.543L42.508,447.71
			c2.221,18.288,4.864,37.083,7.971,51.187C52.165,506.549,58.947,512,66.784,512h378.435c7.837,0,14.62-5.451,16.304-13.103
			c3.106-14.106,5.75-32.903,7.971-51.194l-130.166-11.061c-34.891-3.158-61.065-31.766-61.065-66.554v-61.108
			C278.262,273.941,304.588,245.326,339.49,242.424z M182.164,182.614c-2.163-8.712-6.674-16.712-13.195-23.234
			c-9.468-9.466-22.044-14.684-35.403-14.684h-22.569C128.34,80.1,187.525,33.391,256.001,33.391
			c68.476,0,127.661,46.709,145.004,111.304h-22.569c-23.413,0-43.13,16.152-48.587,37.902
			C284.882,197.865,226.806,197.816,182.164,182.614z"/>
	</g>
</g>
<g>
	<g>
		<path d="M511.111,296.065c-0.315-8.87-4.163-17.049-10.827-23.027c-6.185-5.543-14.369-8.717-22.468-8.717
			c0,0-1.663,0.027-1.674,0.027c-0.348,0-0.718,0-2.044,0.162l-131.837,11.191c-17.446,1.451-30.609,15.755-30.609,33.277v61.109
			c0,17.402,13.152,31.712,30.5,33.282l131.294,11.157c0.892,0.066,1.783,0.098,2.664,0.098c8.109,0,15.674-2.794,21.869-8.087
			c6.685-5.712,10.717-13.641,11.347-22.31c0.022-0.272,0.032-0.543,0.055-0.815l0.055-15.885v15.157
			C511.752,349.907,512.165,327.842,511.111,296.065z M411.827,356.174c-9.22,0-16.696-7.475-16.696-16.696
			s7.475-16.696,16.696-16.696s16.696,7.475,16.696,16.696S421.048,356.174,411.827,356.174z"/>
	</g>
</g>
<g>
	<g>
		<circle cx="256" cy="83.478" r="16.696"/>
	</g>
</g>
<g>
	<g>
		<circle cx="185.166" cy="112.818" r="16.696"/>
	</g>
</g>
<g>
	<g>
		<circle cx="326.834" cy="112.818" r="16.696"/>
	</g>
</g>
<g>
	<g>
		<path d="M169.74,275.702L37.926,264.51c-0.304-0.027-0.924-0.115-1.229-0.152c-0.022,0-1.598-0.017-1.815-0.022
			c-8.815,0-16.815,3.005-23.152,8.696c-6.674,5.984-10.522,14.174-10.837,23.032c-1.076,32.277-0.63,54.527,1.783,88.157
			c0.63,8.68,4.663,16.603,11.359,22.315c6.185,5.294,13.751,8.087,21.859,8.087c0.869,0,1.761-0.032,3.065-0.125l130.892-11.125
			c17.379-1.576,30.498-15.885,30.498-33.288v-61.108C200.349,291.457,187.207,277.152,169.74,275.702z M100.175,356.174
			c-9.22,0-16.696-7.475-16.696-16.696s7.475-16.696,16.696-16.696s16.696,7.475,16.696,16.696S109.395,356.174,100.175,356.174z"/>
	</g>
</g>
</svg>