<svg width="57" height="58" viewBox="0 0 57 58" fill="none" xmlns="http://www.w3.org/2000/svg">
<g id="Frame" clip-path="url(#clip0_71_4553)">
<g id="Group">
<path id="Vector" d="M52.2786 5.58278C45.175 -1.52083 32.4495 -0.504265 24.0065 7.93876C13.6631 18.2813 17.1527 33.6468 7.79948 43C5.77691 45.0226 6.27491 44.5229 6.19373 44.6041C6.19095 44.6094 1.59893 49.1933 1.5946 49.1976C-0.35445 51.1467 -0.35445 54.3159 1.5946 56.2649C3.54365 58.214 6.71273 58.214 8.66189 56.2649C14.9956 49.9311 12.6856 52.25 13.2626 51.673C13.2655 51.6677 14.8624 50.0716 14.8667 50.0673C21.4266 43.5073 30.2866 43.6063 40.2439 39.8251C43.4239 38.6175 46.4724 37.3051 49.9224 33.8547C58.3558 25.4213 59.3858 12.6899 52.2786 5.58278ZM49.9224 7.93876C50.7331 8.74941 51.3975 9.6578 51.9449 10.6285L47.5664 15.0069L42.8545 10.2949L47.2329 5.91641C48.2035 6.46373 49.1119 7.12811 49.9224 7.93876ZM28.7185 24.4307L33.4305 19.7187L38.1425 24.4307L33.4305 29.1427L28.7185 24.4307ZM31.0744 31.4987L26.7011 35.8721C25.7211 35.3207 24.809 34.6574 24.0066 33.8547C23.204 33.0523 22.5406 32.1401 21.989 31.1603L26.3625 26.7867L31.0744 31.4987ZM35.7865 17.3628L40.4985 12.6507L45.2106 17.3628L40.4985 22.0748L35.7865 17.3628ZM43.8434 4.59398L40.4985 7.93865L37.0384 4.47859C39.3744 4.028 41.693 4.07254 43.8434 4.59398ZM33.4227 5.575L38.1425 10.2946L33.4305 15.0067L27.5892 9.16534C29.3993 7.60546 31.3811 6.4092 33.4227 5.575ZM25.256 11.5443L31.0743 17.3627L26.3624 22.0747L21.6503 17.3627C22.5015 15.2779 23.7271 13.3187 25.256 11.5443ZM20.564 20.9881L24.0065 24.4307L20.6653 27.7719C20.1516 25.6589 20.1095 23.355 20.564 20.9881ZM22.2725 41.7269C20.5451 41.6018 19.0577 40.9761 17.9742 39.8925C16.8907 38.809 16.2649 37.3217 16.1399 35.5943C16.8422 33.4941 15.7895 37.0929 17.8643 29.7962C18.0306 30.3016 18.1542 30.8259 18.3654 31.31C18.403 31.441 18.4615 31.5599 18.5321 31.68C19.3103 33.3496 20.3311 34.8913 21.6504 36.2109C22.9694 37.5297 24.5109 38.55 26.1794 39.3279C26.3006 39.3991 26.4207 39.4585 26.5526 39.4965C27.0403 39.709 27.5678 39.8339 28.0771 40.0008C20.7734 42.0773 24.3707 41.0251 22.2725 41.7269ZM30.0898 37.1955L33.4307 33.8546L36.8727 37.2969C34.5057 37.7509 32.2024 37.7088 30.0898 37.1955ZM40.4985 36.2108L35.7865 31.4987L40.4985 26.7867L46.3169 32.6051C44.5425 34.1341 42.5834 35.3597 40.4985 36.2108ZM48.6959 30.272L42.8547 24.4307L47.5667 19.7187L52.2865 24.4385C51.452 26.4801 50.2558 28.4619 48.6959 30.272ZM49.9225 17.3627L53.2674 14.018C53.7887 16.1682 53.8332 18.4868 53.3827 20.8228L49.9225 17.3627ZM8.46608 0.865922C3.87328 0.865922 0.136339 4.60287 0.136339 9.19566C0.136339 13.7885 3.87339 17.5254 8.46608 17.5254C13.0589 17.5254 16.7958 13.7885 16.7958 9.19566C16.7958 4.60287 13.0589 0.865922 8.46608 0.865922Z" fill="#8C8C8C"/>
</g>
</g>
<defs>
<clipPath id="clip0_71_4553">
<rect width="56.8645" height="56.8645" fill="white" transform="translate(0.132812 0.862061)"/>
</clipPath>
</defs>
</svg>
