<svg width="61" height="61" viewBox="0 0 61 61" fill="none" xmlns="http://www.w3.org/2000/svg">
<path d="M51.4688 15.25H13.3438C12.8382 15.25 12.3533 15.0492 11.9958 14.6917C11.6383 14.3342 11.4375 13.8493 11.4375 13.3438C11.4375 12.8382 11.6383 12.3533 11.9958 11.9958C12.3533 11.6383 12.8382 11.4375 13.3438 11.4375H45.75C46.2556 11.4375 46.7404 11.2367 47.0979 10.8792C47.4554 10.5217 47.6562 10.0368 47.6562 9.53125C47.6562 9.02568 47.4554 8.54082 47.0979 8.18333C46.7404 7.82584 46.2556 7.625 45.75 7.625H13.3438C11.827 7.625 10.3725 8.22751 9.29998 9.29998C8.22751 10.3725 7.625 11.827 7.625 13.3438V43.8438C7.625 45.3605 8.22751 46.815 9.29998 47.8875C10.3725 48.96 11.827 49.5625 13.3438 49.5625H51.4688C52.4799 49.5625 53.4496 49.1608 54.1646 48.4458C54.8796 47.7309 55.2812 46.7611 55.2812 45.75V19.0625C55.2812 18.0514 54.8796 17.0816 54.1646 16.3667C53.4496 15.6517 52.4799 15.25 51.4688 15.25ZM51.4688 45.75H13.3438C12.8382 45.75 12.3533 45.5492 11.9958 45.1917C11.6383 44.8342 11.4375 44.3493 11.4375 43.8438V18.7361C12.0496 18.953 12.6943 19.0634 13.3438 19.0625H51.4688V45.75ZM40.0312 31.4531C40.0312 30.8876 40.199 30.3348 40.5131 29.8645C40.8273 29.3943 41.2739 29.0278 41.7964 28.8114C42.3189 28.595 42.8938 28.5384 43.4485 28.6487C44.0031 28.759 44.5126 29.0314 44.9125 29.4312C45.3124 29.8311 45.5847 30.3406 45.6951 30.8953C45.8054 31.45 45.7488 32.0249 45.5323 32.5474C45.3159 33.0698 44.9494 33.5164 44.4792 33.8306C44.009 34.1448 43.4562 34.3125 42.8906 34.3125C42.1323 34.3125 41.405 34.0112 40.8687 33.475C40.3325 32.9388 40.0312 32.2115 40.0312 31.4531Z" fill="#E73725"/>
</svg>
