<svg width="63" height="63" viewBox="0 0 63 63" fill="none" xmlns="http://www.w3.org/2000/svg">
<g id="Television">
<path id="Vector" d="M53.1562 15.75H36.2521L44.7054 7.29914C45.0748 6.92972 45.2823 6.42868 45.2823 5.90625C45.2823 5.38381 45.0748 4.88277 44.7054 4.51336C44.336 4.14394 43.8349 3.9364 43.3125 3.9364C42.7901 3.9364 42.289 4.14394 41.9196 4.51336L31.5 14.9354L21.0804 4.51336C20.8975 4.33044 20.6803 4.18534 20.4413 4.08635C20.2023 3.98735 19.9462 3.9364 19.6875 3.9364C19.4288 3.9364 19.1727 3.98735 18.9337 4.08635C18.6947 4.18534 18.4775 4.33044 18.2946 4.51336C17.9252 4.88277 17.7177 5.38381 17.7177 5.90625C17.7177 6.42868 17.9252 6.92972 18.2946 7.29914L26.7479 15.75H9.84375C8.79946 15.75 7.79794 16.1648 7.05952 16.9033C6.32109 17.6417 5.90625 18.6432 5.90625 19.6875V49.2187C5.90625 50.263 6.32109 51.2646 7.05952 52.003C7.79794 52.7414 8.79946 53.1562 9.84375 53.1562H53.1562C54.2005 53.1562 55.2021 52.7414 55.9405 52.003C56.6789 51.2646 57.0938 50.263 57.0938 49.2187V19.6875C57.0938 18.6432 56.6789 17.6417 55.9405 16.9033C55.2021 16.1648 54.2005 15.75 53.1562 15.75ZM53.1562 49.2187H39.375V19.6875H53.1562V49.2187ZM49.2188 28.5469C49.2188 29.1309 49.0456 29.7019 48.7211 30.1875C48.3966 30.6732 47.9353 31.0517 47.3957 31.2752C46.8561 31.4987 46.2624 31.5572 45.6895 31.4433C45.1166 31.3293 44.5905 31.048 44.1775 30.635C43.7645 30.222 43.4832 29.6958 43.3692 29.123C43.2553 28.5501 43.3138 27.9564 43.5373 27.4168C43.7608 26.8771 44.1393 26.4159 44.625 26.0914C45.1106 25.7669 45.6816 25.5937 46.2656 25.5937C47.0488 25.5937 47.8 25.9049 48.3538 26.4587C48.9076 27.0125 49.2188 27.7637 49.2188 28.5469ZM49.2188 40.3594C49.2188 40.9434 49.0456 41.5144 48.7211 42C48.3966 42.4857 47.9353 42.8642 47.3957 43.0877C46.8561 43.3112 46.2624 43.3697 45.6895 43.2558C45.1166 43.1418 44.5905 42.8605 44.1775 42.4475C43.7645 42.0345 43.4832 41.5083 43.3692 40.9355C43.2553 40.3626 43.3138 39.7689 43.5373 39.2293C43.7608 38.6896 44.1393 38.2284 44.625 37.9039C45.1106 37.5794 45.6816 37.4062 46.2656 37.4062C47.0488 37.4062 47.8 37.7174 48.3538 38.2712C48.9076 38.825 49.2188 39.5762 49.2188 40.3594Z" fill="#8C8C8C"/>
</g>
</svg>
