<?xml version="1.0" encoding="iso-8859-1"?>
<!-- Uploaded to: SVG Repo, www.svgrepo.com, Generator: SVG Repo Mixer Tools -->
<!DOCTYPE svg PUBLIC "-//W3C//DTD SVG 1.1//EN" "http://www.w3.org/Graphics/SVG/1.1/DTD/svg11.dtd">
<svg fill="#000000" height="800px" width="800px" version="1.1" id="Capa_1" xmlns="http://www.w3.org/2000/svg" xmlns:xlink="http://www.w3.org/1999/xlink" 
	 viewBox="0 0 219.571 219.571" xml:space="preserve">
<path d="M109.78,0C49.247,0,0,49.25,0,109.787c0.001,29.774,11.921,56.813,31.232,76.609c0.14,0.157,0.286,0.305,0.438,0.448
	c19.919,20.19,47.578,32.727,78.112,32.727h0.001c29.325-0.002,56.896-11.422,77.633-32.158
	c20.737-20.736,32.157-48.305,32.155-77.626C219.571,49.251,170.32,0.001,109.78,0z M43.562,177.528
	c-10.539-41.034,7.512-84.182,44.391-105.475c1.691-0.977,3.419-1.896,5.167-2.769c5.339,11.27,8.483,23.613,9.039,36.36
	c-14.766,9.359-26.874,22.026-35.586,36.708c-0.08,0.124-0.153,0.249-0.225,0.376c-7.533,12.811-12.48,27.138-14.355,42.131
	C49.04,182.58,46.225,180.132,43.562,177.528z M84.127,18.531c40.868,11.352,69.262,48.588,69.262,91.212
	c0,1.965-0.067,3.932-0.188,5.891c-12.441-1.008-24.715-4.46-36.044-10.358c-0.713-17.346-5.562-34.052-13.811-48.862
	c-0.185-0.41-0.398-0.799-0.644-1.159c-7.31-12.76-17.168-24.056-29.09-33.076C77.022,20.766,80.531,19.543,84.127,18.531z
	 M109.978,118.449c15.584,8.165,32.724,12.326,49.902,12.486c0.036,0.001,0.072,0.007,0.108,0.007c0.03,0,0.06-0.004,0.089-0.004
	c0.278,0.002,0.556,0.013,0.833,0.013c14.591,0,29.181-2.899,42.844-8.673c-0.48,3.679-1.171,7.309-2.07,10.873
	c-30.266,29.75-76.733,35.734-113.664,14.412c-1.697-0.979-3.364-2.02-5.001-3.102C90.106,134.202,99.22,125.307,109.978,118.449z
	 M204.465,105.392c-11.405,5.891-23.75,9.315-36.249,10.274c0.105-1.972,0.173-3.949,0.173-5.923
	c0-39.686-21.258-75.336-54.184-94.637C162.969,17.359,202.228,56.626,204.465,105.392z M58.645,30.011
	c10.794,6.934,19.925,15.91,26.999,26.252c-1.753,0.892-3.49,1.817-5.191,2.799c-34.36,19.839-54.605,56.063-54.866,94.217
	C18.826,140.246,15,125.455,15,109.786C15,76.341,32.411,46.888,58.645,30.011z M176.809,176.806
	c-17.904,17.903-41.708,27.763-67.027,27.765c-15.683,0-30.485-3.833-43.528-10.605c0.604-12.818,3.811-25.217,9.229-36.519
	c1.655,1.077,3.332,2.123,5.039,3.107c17.153,9.903,36.079,14.722,54.867,14.722c18.866,0,37.588-4.864,54.216-14.323
	C185.959,166.616,181.684,171.931,176.809,176.806z"/>
</svg>