<svg width="63" height="63" viewBox="0 0 63 63" fill="none" xmlns="http://www.w3.org/2000/svg">
<g id="Broadcast">
<path id="Vector" d="M41.3441 31.5C41.3441 33.4469 40.7668 35.3501 39.6851 36.9689C38.6035 38.5877 37.0661 39.8494 35.2674 40.5945C33.4687 41.3395 31.4894 41.5344 29.5799 41.1546C27.6704 40.7748 25.9165 39.8373 24.5398 38.4606C23.1631 37.0839 22.2256 35.3299 21.8458 33.4204C21.4659 31.5109 21.6609 29.5317 22.4059 27.733C23.151 25.9343 24.4127 24.3969 26.0315 23.3152C27.6503 22.2336 29.5535 21.6563 31.5004 21.6563C34.1111 21.6563 36.6149 22.6934 38.4609 24.5394C40.307 26.3855 41.3441 28.8893 41.3441 31.5ZM51.1879 31.5C51.1938 26.6566 49.4083 21.982 46.1749 18.3758C46.0039 18.1785 45.7952 18.0172 45.5612 17.9012C45.3272 17.7853 45.0724 17.7171 44.8117 17.7006C44.5511 17.6841 44.2898 17.7196 44.043 17.8051C43.7962 17.8906 43.5689 18.0243 43.3743 18.1985C43.1797 18.3727 43.0217 18.5839 42.9095 18.8197C42.7973 19.0556 42.7332 19.3114 42.7208 19.5723C42.7084 19.8332 42.7481 20.0939 42.8375 20.3393C42.9269 20.5847 43.0642 20.8098 43.2415 21.0017C45.824 23.8892 47.2518 27.6273 47.2518 31.5012C47.2518 35.3752 45.824 39.1133 43.2415 42.0008C42.903 42.3913 42.7316 42.8991 42.7643 43.4148C42.7969 43.9305 43.031 44.4127 43.416 44.7573C43.801 45.102 44.3061 45.2814 44.8222 45.257C45.3384 45.2325 45.8242 45.0061 46.1749 44.6267C49.4079 41.0192 51.1932 36.3441 51.1879 31.5ZM19.7592 21.0017C19.9365 20.8098 20.0738 20.5847 20.1632 20.3393C20.2526 20.0939 20.2923 19.8332 20.2799 19.5723C20.2676 19.3114 20.2034 19.0556 20.0913 18.8197C19.9791 18.5839 19.8211 18.3727 19.6265 18.1985C19.4319 18.0243 19.2046 17.8906 18.9578 17.8051C18.711 17.7196 18.4496 17.6841 18.189 17.7006C17.9283 17.7171 17.6736 17.7853 17.4395 17.9012C17.2055 18.0172 16.9969 18.1785 16.8258 18.3758C13.5941 21.9839 11.8071 26.6575 11.8071 31.5012C11.8071 36.345 13.5941 41.0186 16.8258 44.6267C17.1765 45.0061 17.6624 45.2325 18.1785 45.257C18.6946 45.2814 19.1997 45.102 19.5847 44.7573C19.9697 44.4127 20.2038 43.9305 20.2365 43.4148C20.2691 42.8991 20.0977 42.3913 19.7592 42.0008C17.1742 39.1145 15.7448 35.376 15.7448 31.5012C15.7448 27.6265 17.1742 23.888 19.7592 21.0017ZM58.711 20.0173C57.2701 16.5954 55.1942 13.4775 52.5931 10.8281C52.4138 10.6365 52.198 10.4825 51.9583 10.3755C51.7187 10.2684 51.4601 10.2103 51.1977 10.2047C50.9353 10.199 50.6744 10.2459 50.4304 10.3425C50.1863 10.4392 49.9641 10.5836 49.7767 10.7674C49.5893 10.9512 49.4406 11.1706 49.3392 11.4127C49.2378 11.6548 49.1859 11.9147 49.1865 12.1771C49.187 12.4396 49.2401 12.6993 49.3424 12.941C49.4448 13.1826 49.5945 13.4014 49.7827 13.5844C54.475 18.3651 57.1039 24.7963 57.1039 31.4951C57.1039 38.1938 54.475 44.6251 49.7827 49.4058C49.601 49.5903 49.4575 49.8088 49.3604 50.0488C49.2632 50.2888 49.2142 50.5456 49.2163 50.8045C49.2183 51.0634 49.2714 51.3194 49.3724 51.5578C49.4733 51.7962 49.6203 52.0124 49.8048 52.194C49.9894 52.3757 50.2079 52.5192 50.4478 52.6163C50.6878 52.7135 50.9446 52.7625 51.2035 52.7604C51.4624 52.7584 51.7184 52.7053 51.9568 52.6044C52.1952 52.5034 52.4114 52.3564 52.5931 52.1719C56.6689 48.0096 59.4241 42.7358 60.5126 37.0129C61.601 31.2899 60.9742 25.3729 58.711 20.005V20.0173ZM7.9172 41.4619C5.95004 36.8117 5.40369 31.6832 6.34704 26.7229C7.29039 21.7627 9.68121 17.1927 13.2181 13.5893C13.5842 13.2166 13.7873 12.7138 13.7827 12.1913C13.7781 11.6689 13.5661 11.1697 13.1935 10.8035C12.8208 10.4374 12.3179 10.2343 11.7955 10.2389C11.273 10.2435 10.7738 10.4555 10.4077 10.8281C4.98914 16.3444 1.95313 23.7676 1.95312 31.5C1.95313 39.2324 4.98914 46.6556 10.4077 52.1719C10.587 52.3636 10.8028 52.5175 11.0424 52.6245C11.282 52.7316 11.5407 52.7897 11.8031 52.7953C12.0655 52.801 12.3263 52.7541 12.5704 52.6575C12.8144 52.5609 13.0366 52.4164 13.224 52.2326C13.4114 52.0489 13.5602 51.8295 13.6615 51.5874C13.7629 51.3453 13.8148 51.0854 13.8143 50.8229C13.8137 50.5604 13.7607 50.3007 13.6583 50.059C13.5559 49.8174 13.4062 49.5986 13.2181 49.4156C10.9655 47.1222 9.16698 44.4236 7.9172 41.4619Z" fill="#8C8C8C"/>
</g>
</svg>
